<?xml version="1.0" encoding="UTF-8" standalone="no"?>
<svg xmlns="http://www.w3.org/2000/svg" width="800" height="450" viewBox="0 0 800 450">
  <!-- Court background -->
  <rect x="0" y="0" width="800" height="450" fill="#ffdfc4" />
  
  <!-- Court outline -->
  <rect x="50" y="50" width="700" height="350" fill="none" stroke="#8b4513" stroke-width="2" />
  
  <!-- Center circle -->
  <circle cx="400" cy="225" r="60" fill="none" stroke="#8b4513" stroke-width="2" />
  
  <!-- Center line -->
  <line x1="400" y1="50" x2="400" y2="400" stroke="#8b4513" stroke-width="2" />
  
  <!-- Left key -->
  <rect x="50" y="150" width="190" height="150" fill="#ffebcd" stroke="#8b4513" stroke-width="2" />
  
  <!-- Left free throw line -->
  <line x1="240" y1="150" x2="240" y2="300" stroke="#8b4513" stroke-width="2" />
  
  <!-- Left free throw circle -->
  <path d="M 240 225 m -60 0 a 60 60 0 1 0 120 0" fill="none" stroke="#8b4513" stroke-width="2" />
  
  <!-- Left hoop -->
  <circle cx="50" cy="225" r="7.5" fill="none" stroke="#8b4513" stroke-width="2" />
  
  <!-- Left backboard -->
  <line x1="20" y1="195" x2="20" y2="255" stroke="#8b4513" stroke-width="4" />
  
  <!-- Left three-point line -->
  <path d="M 50 100 L 50 350 M 50 100 A 237.5 237.5 0 0 1 50 350" fill="none" stroke="#8b4513" stroke-width="2" />
  
  <!-- Right key -->
  <rect x="560" y="150" width="190" height="150" fill="#ffebcd" stroke="#8b4513" stroke-width="2" />
  
  <!-- Right free throw line -->
  <line x1="560" y1="150" x2="560" y2="300" stroke="#8b4513" stroke-width="2" />
  
  <!-- Right free throw circle -->
  <path d="M 560 225 m -60 0 a 60 60 0 0 1 120 0" fill="none" stroke="#8b4513" stroke-width="2" />
  
  <!-- Right hoop -->
  <circle cx="750" cy="225" r="7.5" fill="none" stroke="#8b4513" stroke-width="2" />
  
  <!-- Right backboard -->
  <line x1="780" y1="195" x2="780" y2="255" stroke="#8b4513" stroke-width="4" />
  
  <!-- Right three-point line -->
  <path d="M 750 100 L 750 350 M 750 100 A 237.5 237.5 0 0 0 750 350" fill="none" stroke="#8b4513" stroke-width="2" />
  
  <!-- Lane markers (hash marks) - Left side -->
  <line x1="80" y1="150" x2="80" y2="160" stroke="#8b4513" stroke-width="2" />
  <line x1="120" y1="150" x2="120" y2="160" stroke="#8b4513" stroke-width="2" />
  <line x1="160" y1="150" x2="160" y2="160" stroke="#8b4513" stroke-width="2" />
  <line x1="200" y1="150" x2="200" y2="160" stroke="#8b4513" stroke-width="2" />
  
  <line x1="80" y1="300" x2="80" y2="290" stroke="#8b4513" stroke-width="2" />
  <line x1="120" y1="300" x2="120" y2="290" stroke="#8b4513" stroke-width="2" />
  <line x1="160" y1="300" x2="160" y2="290" stroke="#8b4513" stroke-width="2" />
  <line x1="200" y1="300" x2="200" y2="290" stroke="#8b4513" stroke-width="2" />
  
  <!-- Lane markers (hash marks) - Right side -->
  <line x1="600" y1="150" x2="600" y2="160" stroke="#8b4513" stroke-width="2" />
  <line x1="640" y1="150" x2="640" y2="160" stroke="#8b4513" stroke-width="2" />
  <line x1="680" y1="150" x2="680" y2="160" stroke="#8b4513" stroke-width="2" />
  <line x1="720" y1="150" x2="720" y2="160" stroke="#8b4513" stroke-width="2" />
  
  <line x1="600" y1="300" x2="600" y2="290" stroke="#8b4513" stroke-width="2" />
  <line x1="640" y1="300" x2="640" y2="290" stroke="#8b4513" stroke-width="2" />
  <line x1="680" y1="300" x2="680" y2="290" stroke="#8b4513" stroke-width="2" />
  <line x1="720" y1="300" x2="720" y2="290" stroke="#8b4513" stroke-width="2" />
</svg>